<svg xmlns="http://www.w3.org/2000/svg" width="700" height="450" viewBox="0 0 700 450" role="img" aria-labelledby="title desc">
  <title id="title">Shared garden</title>
  <desc id="desc">Raised garden beds filled with green plants.</desc>
  <rect width="700" height="450" fill="#cfe8ef"/>
  <rect x="0" y="300" width="700" height="150" fill="#5b7f4a"/>
  <rect x="90" y="220" width="200" height="96" rx="8" fill="#8d5524"/>
  <rect x="410" y="220" width="200" height="96" rx="8" fill="#8d5524"/>
  <path d="M120 220C130 170 170 170 180 220" fill="#2f7d32"/>
  <path d="M185 220C195 152 248 155 256 220" fill="#3a923f"/>
  <path d="M440 220C450 165 495 165 505 220" fill="#2f7d32"/>
  <path d="M515 220C525 155 575 155 585 220" fill="#3a923f"/>
  <circle cx="190" cy="175" r="14" fill="#e76f51"/>
  <circle cx="535" cy="172" r="14" fill="#f4a261"/>
  <path d="M350 300V150" stroke="#143642" stroke-width="8"/>
  <path d="M320 180H380" stroke="#143642" stroke-width="8"/>
</svg>
