<svg xmlns="http://www.w3.org/2000/svg" width="700" height="450" viewBox="0 0 700 450" role="img" aria-labelledby="title desc">
  <title id="title">Path home</title>
  <desc id="desc">A curving path lined with small lanterns.</desc>
  <rect width="700" height="450" fill="#203447"/>
  <circle cx="95" cy="84" r="34" fill="#fef3c7"/>
  <path d="M0 330C170 250 235 410 390 315C500 250 560 265 700 205V450H0Z" fill="#31493c"/>
  <path d="M245 450C290 360 375 335 445 315C520 294 585 262 700 220V450Z" fill="#d6ccc2"/>
  <g stroke="#fef3c7" stroke-width="10" stroke-linecap="round">
    <path d="M158 290V340"/>
    <path d="M285 345V397"/>
    <path d="M485 275V325"/>
    <path d="M610 235V285"/>
  </g>
  <g fill="#fbbf24">
    <circle cx="158" cy="285" r="16"/>
    <circle cx="285" cy="340" r="16"/>
    <circle cx="485" cy="270" r="16"/>
    <circle cx="610" cy="230" r="16"/>
  </g>
</svg>
